<?xml version="1.0" encoding="UTF-8"?>
<svg xmlns="http://www.w3.org/2000/svg" width="1800" height="1020" viewBox="0 0 1800 1020">
<defs><linearGradient id="bg" x1="0" y1="0" x2="0" y2="1"><stop offset="0%" stop-color="#06101f"/><stop offset="100%" stop-color="#0b1326"/></linearGradient></defs>
<rect x="0" y="0" width="1800" height="1020" rx="0" fill="url(#bg)" stroke="none" stroke-width="1" opacity="1.0"/>
<text x="56" y="56" font-size="31" font-weight="800" fill="#f8fafc" text-anchor="start" opacity="1.0">results4.log - Validation negative</text>
<text x="56" y="84" font-size="15" font-weight="400" fill="#94a3b8" text-anchor="start" opacity="1.0">Exact-match des exemples negative par version du modèle</text>
<rect x="1260" y="26" width="488" height="110" rx="18" fill="#0f172a" stroke="#2c3f5c" stroke-width="1.1" opacity="0.98"/>
<text x="1282" y="54" font-size="14" font-weight="400" fill="#cbd5e1" text-anchor="start" opacity="1.0">Base: 0.00% (0/62)</text>
<text x="1282" y="76" font-size="14" font-weight="400" fill="#cbd5e1" text-anchor="start" opacity="1.0">Best: checkpoint-625 -&gt; 95.16% (59/62)</text>
<text x="1282" y="98" font-size="14" font-weight="400" fill="#cbd5e1" text-anchor="start" opacity="1.0">Final: 82.26% (51/62)</text>
<text x="1282" y="120" font-size="14" font-weight="400" fill="#cbd5e1" text-anchor="start" opacity="1.0">Gain vs base: +82.26 pts</text>
<rect x="80" y="140" width="1640" height="640" rx="24" fill="#0f172a" stroke="#273449" stroke-width="1.2" opacity="0.98"/>
<text x="104" y="174" font-size="22" font-weight="700" fill="#e5e7eb" text-anchor="start" opacity="1.0">Taux de réussite sur le split validation (negative)</text>
<text x="104" y="196" font-size="13" font-weight="400" fill="#94a3b8" text-anchor="start" opacity="1.0">62 exemples négatifs évalués pour chaque version</text>
<line x1="152" y1="698.0" x2="1678" y2="698.0" stroke="#20304b" stroke-width="1" opacity="1.0"/>
<text x="140" y="702.0" font-size="12" font-weight="400" fill="#94a3b8" text-anchor="end" opacity="1.0">0%</text>
<line x1="152" y1="567.0" x2="1678" y2="567.0" stroke="#20304b" stroke-width="1" opacity="1.0"/>
<text x="140" y="571.0" font-size="12" font-weight="400" fill="#94a3b8" text-anchor="end" opacity="1.0">25%</text>
<line x1="152" y1="436.0" x2="1678" y2="436.0" stroke="#20304b" stroke-width="1" opacity="1.0"/>
<text x="140" y="440.0" font-size="12" font-weight="400" fill="#94a3b8" text-anchor="end" opacity="1.0">50%</text>
<line x1="152" y1="305.0" x2="1678" y2="305.0" stroke="#20304b" stroke-width="1" opacity="1.0"/>
<text x="140" y="309.0" font-size="12" font-weight="400" fill="#94a3b8" text-anchor="end" opacity="1.0">75%</text>
<line x1="152" y1="174.0" x2="1678" y2="174.0" stroke="#20304b" stroke-width="1" opacity="1.0"/>
<text x="140" y="178.0" font-size="12" font-weight="400" fill="#94a3b8" text-anchor="end" opacity="1.0">100%</text>
<line x1="152.0" y1="698.0" x2="224.66666666666666" y2="596.606" stroke="#f59e0b" stroke-width="4" opacity="1.0"/>
<line x1="224.66666666666666" y1="596.606" x2="297.3333333333333" y2="334.60600000000005" stroke="#f59e0b" stroke-width="4" opacity="1.0"/>
<line x1="297.3333333333333" y1="334.60600000000005" x2="370.0" y2="233.15960000000007" stroke="#f59e0b" stroke-width="4" opacity="1.0"/>
<line x1="370.0" y1="233.15960000000007" x2="442.66666666666663" y2="250.08479999999997" stroke="#f59e0b" stroke-width="4" opacity="1.0"/>
<line x1="442.66666666666663" y1="250.08479999999997" x2="515.3333333333333" y2="199.3616" stroke="#f59e0b" stroke-width="4" opacity="1.0"/>
<line x1="515.3333333333333" y1="199.3616" x2="588.0" y2="224.72320000000008" stroke="#f59e0b" stroke-width="4" opacity="1.0"/>
<line x1="588.0" y1="224.72320000000008" x2="660.6666666666666" y2="266.9576" stroke="#f59e0b" stroke-width="4" opacity="1.0"/>
<line x1="660.6666666666666" y1="266.9576" x2="733.3333333333333" y2="216.2344" stroke="#f59e0b" stroke-width="4" opacity="1.0"/>
<line x1="733.3333333333333" y1="216.2344" x2="806.0" y2="283.8828" stroke="#f59e0b" stroke-width="4" opacity="1.0"/>
<line x1="806.0" y1="283.8828" x2="878.6666666666666" y2="275.39399999999995" stroke="#f59e0b" stroke-width="4" opacity="1.0"/>
<line x1="878.6666666666666" y1="275.39399999999995" x2="951.3333333333334" y2="258.5212" stroke="#f59e0b" stroke-width="4" opacity="1.0"/>
<line x1="951.3333333333334" y1="258.5212" x2="1024.0" y2="275.39399999999995" stroke="#f59e0b" stroke-width="4" opacity="1.0"/>
<line x1="1024.0" y1="275.39399999999995" x2="1096.6666666666667" y2="266.9576" stroke="#f59e0b" stroke-width="4" opacity="1.0"/>
<line x1="1096.6666666666667" y1="266.9576" x2="1169.3333333333333" y2="266.9576" stroke="#f59e0b" stroke-width="4" opacity="1.0"/>
<line x1="1169.3333333333333" y1="266.9576" x2="1242.0" y2="258.5212" stroke="#f59e0b" stroke-width="4" opacity="1.0"/>
<line x1="1242.0" y1="258.5212" x2="1314.6666666666665" y2="258.5212" stroke="#f59e0b" stroke-width="4" opacity="1.0"/>
<line x1="1314.6666666666665" y1="258.5212" x2="1387.3333333333333" y2="266.9576" stroke="#f59e0b" stroke-width="4" opacity="1.0"/>
<line x1="1387.3333333333333" y1="266.9576" x2="1460.0" y2="266.9576" stroke="#f59e0b" stroke-width="4" opacity="1.0"/>
<line x1="1460.0" y1="266.9576" x2="1532.6666666666667" y2="275.39399999999995" stroke="#f59e0b" stroke-width="4" opacity="1.0"/>
<line x1="1532.6666666666667" y1="275.39399999999995" x2="1605.3333333333333" y2="266.9576" stroke="#f59e0b" stroke-width="4" opacity="1.0"/>
<line x1="1605.3333333333333" y1="266.9576" x2="1678.0" y2="266.9576" stroke="#f59e0b" stroke-width="4" opacity="1.0"/>
<circle cx="152.0" cy="698.0" r="6" fill="#64748b" stroke="#ffffff" stroke-width="2.5"/>
<line x1="152.0" y1="705.0" x2="152.0" y2="708" stroke="#334155" stroke-width="1" opacity="0.35"/>
<circle cx="224.66666666666666" cy="596.606" r="6" fill="#2563eb" stroke="#ffffff" stroke-width="2.5"/>
<line x1="224.66666666666666" y1="603.606" x2="224.66666666666666" y2="708" stroke="#334155" stroke-width="1" opacity="0.35"/>
<circle cx="297.3333333333333" cy="334.60600000000005" r="6" fill="#2563eb" stroke="#ffffff" stroke-width="2.5"/>
<line x1="297.3333333333333" y1="341.60600000000005" x2="297.3333333333333" y2="708" stroke="#334155" stroke-width="1" opacity="0.35"/>
<circle cx="370.0" cy="233.15960000000007" r="6" fill="#2563eb" stroke="#ffffff" stroke-width="2.5"/>
<line x1="370.0" y1="240.15960000000007" x2="370.0" y2="708" stroke="#334155" stroke-width="1" opacity="0.35"/>
<circle cx="442.66666666666663" cy="250.08479999999997" r="6" fill="#2563eb" stroke="#ffffff" stroke-width="2.5"/>
<line x1="442.66666666666663" y1="257.0848" x2="442.66666666666663" y2="708" stroke="#334155" stroke-width="1" opacity="0.35"/>
<circle cx="515.3333333333333" cy="199.3616" r="6" fill="#22c55e" stroke="#ffffff" stroke-width="2.5"/>
<line x1="515.3333333333333" y1="206.3616" x2="515.3333333333333" y2="708" stroke="#334155" stroke-width="1" opacity="0.35"/>
<circle cx="588.0" cy="224.72320000000008" r="6" fill="#2563eb" stroke="#ffffff" stroke-width="2.5"/>
<line x1="588.0" y1="231.72320000000008" x2="588.0" y2="708" stroke="#334155" stroke-width="1" opacity="0.35"/>
<circle cx="660.6666666666666" cy="266.9576" r="6" fill="#2563eb" stroke="#ffffff" stroke-width="2.5"/>
<line x1="660.6666666666666" y1="273.9576" x2="660.6666666666666" y2="708" stroke="#334155" stroke-width="1" opacity="0.35"/>
<circle cx="733.3333333333333" cy="216.2344" r="6" fill="#2563eb" stroke="#ffffff" stroke-width="2.5"/>
<line x1="733.3333333333333" y1="223.2344" x2="733.3333333333333" y2="708" stroke="#334155" stroke-width="1" opacity="0.35"/>
<circle cx="806.0" cy="283.8828" r="6" fill="#2563eb" stroke="#ffffff" stroke-width="2.5"/>
<line x1="806.0" y1="290.8828" x2="806.0" y2="708" stroke="#334155" stroke-width="1" opacity="0.35"/>
<circle cx="878.6666666666666" cy="275.39399999999995" r="6" fill="#2563eb" stroke="#ffffff" stroke-width="2.5"/>
<line x1="878.6666666666666" y1="282.39399999999995" x2="878.6666666666666" y2="708" stroke="#334155" stroke-width="1" opacity="0.35"/>
<circle cx="951.3333333333334" cy="258.5212" r="6" fill="#2563eb" stroke="#ffffff" stroke-width="2.5"/>
<line x1="951.3333333333334" y1="265.5212" x2="951.3333333333334" y2="708" stroke="#334155" stroke-width="1" opacity="0.35"/>
<circle cx="1024.0" cy="275.39399999999995" r="6" fill="#2563eb" stroke="#ffffff" stroke-width="2.5"/>
<line x1="1024.0" y1="282.39399999999995" x2="1024.0" y2="708" stroke="#334155" stroke-width="1" opacity="0.35"/>
<circle cx="1096.6666666666667" cy="266.9576" r="6" fill="#2563eb" stroke="#ffffff" stroke-width="2.5"/>
<line x1="1096.6666666666667" y1="273.9576" x2="1096.6666666666667" y2="708" stroke="#334155" stroke-width="1" opacity="0.35"/>
<circle cx="1169.3333333333333" cy="266.9576" r="6" fill="#2563eb" stroke="#ffffff" stroke-width="2.5"/>
<line x1="1169.3333333333333" y1="273.9576" x2="1169.3333333333333" y2="708" stroke="#334155" stroke-width="1" opacity="0.35"/>
<circle cx="1242.0" cy="258.5212" r="6" fill="#2563eb" stroke="#ffffff" stroke-width="2.5"/>
<line x1="1242.0" y1="265.5212" x2="1242.0" y2="708" stroke="#334155" stroke-width="1" opacity="0.35"/>
<circle cx="1314.6666666666665" cy="258.5212" r="6" fill="#2563eb" stroke="#ffffff" stroke-width="2.5"/>
<line x1="1314.6666666666665" y1="265.5212" x2="1314.6666666666665" y2="708" stroke="#334155" stroke-width="1" opacity="0.35"/>
<circle cx="1387.3333333333333" cy="266.9576" r="6" fill="#2563eb" stroke="#ffffff" stroke-width="2.5"/>
<line x1="1387.3333333333333" y1="273.9576" x2="1387.3333333333333" y2="708" stroke="#334155" stroke-width="1" opacity="0.35"/>
<circle cx="1460.0" cy="266.9576" r="6" fill="#2563eb" stroke="#ffffff" stroke-width="2.5"/>
<line x1="1460.0" y1="273.9576" x2="1460.0" y2="708" stroke="#334155" stroke-width="1" opacity="0.35"/>
<circle cx="1532.6666666666667" cy="275.39399999999995" r="6" fill="#2563eb" stroke="#ffffff" stroke-width="2.5"/>
<line x1="1532.6666666666667" y1="282.39399999999995" x2="1532.6666666666667" y2="708" stroke="#334155" stroke-width="1" opacity="0.35"/>
<circle cx="1605.3333333333333" cy="266.9576" r="6" fill="#2563eb" stroke="#ffffff" stroke-width="2.5"/>
<line x1="1605.3333333333333" y1="273.9576" x2="1605.3333333333333" y2="708" stroke="#334155" stroke-width="1" opacity="0.35"/>
<circle cx="1678.0" cy="266.9576" r="6" fill="#16a34a" stroke="#ffffff" stroke-width="2.5"/>
<line x1="1678.0" y1="273.9576" x2="1678.0" y2="708" stroke="#334155" stroke-width="1" opacity="0.35"/>
<text x="152.0" y="726" font-size="10" font-weight="400" fill="#cbd5e1" text-anchor="middle" opacity="1.0">base</text>
<text x="297.3333333333333" y="726" font-size="10" font-weight="400" fill="#cbd5e1" text-anchor="middle" opacity="1.0">checkpoint-250</text>
<text x="442.66666666666663" y="726" font-size="10" font-weight="400" fill="#cbd5e1" text-anchor="middle" opacity="1.0">checkpoint-500</text>
<text x="588.0" y="726" font-size="10" font-weight="400" fill="#cbd5e1" text-anchor="middle" opacity="1.0">checkpoint-750</text>
<text x="733.3333333333333" y="726" font-size="10" font-weight="400" fill="#cbd5e1" text-anchor="middle" opacity="1.0">checkpoint-1000</text>
<text x="878.6666666666666" y="726" font-size="10" font-weight="400" fill="#cbd5e1" text-anchor="middle" opacity="1.0">checkpoint-1250</text>
<text x="1024.0" y="726" font-size="10" font-weight="400" fill="#cbd5e1" text-anchor="middle" opacity="1.0">checkpoint-1500</text>
<text x="1169.3333333333333" y="726" font-size="10" font-weight="400" fill="#cbd5e1" text-anchor="middle" opacity="1.0">checkpoint-1750</text>
<text x="1314.6666666666665" y="726" font-size="10" font-weight="400" fill="#cbd5e1" text-anchor="middle" opacity="1.0">checkpoint-2000</text>
<text x="1460.0" y="726" font-size="10" font-weight="400" fill="#cbd5e1" text-anchor="middle" opacity="1.0">checkpoint-2250</text>
<text x="1605.3333333333333" y="726" font-size="10" font-weight="400" fill="#cbd5e1" text-anchor="middle" opacity="1.0">checkpoint-2500</text>
<text x="1678.0" y="726" font-size="10" font-weight="400" fill="#cbd5e1" text-anchor="middle" opacity="1.0">final</text>
<rect x="172.0" y="630" width="230" height="56" rx="12" fill="#111827" stroke="#334155" stroke-width="1.0" opacity="0.97"/>
<text x="184.0" y="652" font-size="15" font-weight="700" fill="#f8fafc" text-anchor="start" opacity="1.0">Base 0%</text>
<text x="184.0" y="671" font-size="11" font-weight="400" fill="#cbd5e1" text-anchor="start" opacity="1.0">base  |  0.00%  (0/62)</text>
<rect x="475.33333333333326" y="188" width="230" height="56" rx="12" fill="#111827" stroke="#334155" stroke-width="1.0" opacity="0.97"/>
<text x="487.33333333333326" y="210" font-size="15" font-weight="700" fill="#f8fafc" text-anchor="start" opacity="1.0">Best 95.16%</text>
<text x="487.33333333333326" y="229" font-size="11" font-weight="400" fill="#cbd5e1" text-anchor="start" opacity="1.0">checkpoint-625  |  95.16%  (59/62)</text>
<rect x="1448" y="284.9576" width="230" height="56" rx="12" fill="#111827" stroke="#334155" stroke-width="1.0" opacity="0.97"/>
<text x="1460" y="306.9576" font-size="15" font-weight="700" fill="#f8fafc" text-anchor="start" opacity="1.0">Final 82.26%</text>
<text x="1460" y="325.9576" font-size="11" font-weight="400" fill="#cbd5e1" text-anchor="start" opacity="1.0">final  |  82.26%  (51/62)</text>
<text x="80" y="950" font-size="13" font-weight="400" fill="#94a3b8" text-anchor="start" opacity="1.0">Lecture: plus la courbe monte, plus le modèle rejette correctement les questions négatives.</text>
</svg>